<?xml version="1.0" encoding="UTF-8" standalone="no"?>
<svg
   xmlns:dc="http://purl.org/dc/elements/1.1/"
   xmlns:cc="http://creativecommons.org/ns#"
   xmlns:rdf="http://www.w3.org/1999/02/22-rdf-syntax-ns#"
   xmlns:svg="http://www.w3.org/2000/svg"
   xmlns="http://www.w3.org/2000/svg"
   xmlns:sodipodi="http://sodipodi.sourceforge.net/DTD/sodipodi-0.dtd"
   xmlns:inkscape="http://www.inkscape.org/namespaces/inkscape"
   version="1.1"
   viewBox="0 0 43180 27940"
   preserveAspectRatio="xMidYMid"
   fill-rule="evenodd"
   id="svg3679"
   inkscape:version="0.48.2 r9819"
   width="100%"
   height="100%"
   sodipodi:docname="PalletDesign.svg">
  <metadata
     id="metadata4187">
    <rdf:RDF>
      <cc:Work
         rdf:about="">
        <dc:format>image/svg+xml</dc:format>
        <dc:type
           rdf:resource="http://purl.org/dc/dcmitype/StillImage" />
      </cc:Work>
    </rdf:RDF>
  </metadata>
  <defs
     id="defs4185" />
  <sodipodi:namedview
     pagecolor="#ffffff"
     bordercolor="#666666"
     borderopacity="1"
     objecttolerance="10"
     gridtolerance="10"
     guidetolerance="10"
     inkscape:pageopacity="0"
     inkscape:pageshadow="2"
     inkscape:window-width="1920"
     inkscape:window-height="1058"
     id="namedview4183"
     showgrid="false"
     inkscape:zoom="0.04"
     inkscape:cx="9275.6995"
     inkscape:cy="13187.801"
     inkscape:window-x="-8"
     inkscape:window-y="-8"
     inkscape:window-maximized="1"
     inkscape:current-layer="g4051" />
  <g
     visibility="visible"
     id="Default">
    <desc
       id="desc3682">Master slide</desc>
    <g
       style="stroke:none;fill:none"
       id="g3684">
      <rect
         x="0"
         y="0"
         width="43180"
         height="27940"
         id="rect3686" />
    </g>
  </g>
  <g
     visibility="visible"
     id="page2">
    <desc
       id="desc3689">Slide</desc>
    <g
       id="g3703">
      <desc
         id="desc3705">Drawing</desc>
      <g
         id="g3707">
        <g
           style="stroke:rgb(0,0,0);fill:none"
           id="g3709">
          <path
             style="fill:none"
             d="M 18908,6461 C 18888,6461 18871,6456 18853,6446 18836,6436 18824,6424 18814,6407 18804,6389 18799,6372 18799,6353 18799,6333 18804,6316 18814,6298 18824,6281 18836,6269 18853,6259 18871,6249 18888,6244 18908,6244 18927,6244 18944,6249 18962,6259 18979,6269 18991,6281 19001,6298 19011,6316 19016,6333 19016,6353 19016,6372 19011,6389 19001,6407 18991,6424 18979,6436 18962,6446 18944,6456 18927,6461 18908,6461"
             id="path3711" />
        </g>
        <g
           id="g3713" />
      </g>
    </g>
    <g
       id="g3715">
      <desc
         id="desc3717">Drawing</desc>
      <g
         id="g3719">
        <g
           style="stroke:rgb(0,0,0);fill:none"
           id="g3721">
          <path
             style="fill:none"
             d="M 17148,8475 C 17128,8475 17111,8470 17093,8460 17076,8450 17064,8438 17054,8421 17044,8403 17039,8386 17039,8367 17039,8347 17044,8330 17054,8312 17064,8295 17076,8283 17093,8273 17111,8263 17128,8258 17148,8258 17167,8258 17184,8263 17202,8273 17219,8283 17231,8295 17241,8312 17251,8330 17256,8347 17256,8367 17256,8386 17251,8403 17241,8421 17231,8438 17219,8450 17202,8460 17184,8470 17167,8475 17148,8475"
             id="path3723" />
        </g>
        <g
           id="g3725" />
      </g>
    </g>
    <g
       id="g3727">
      <desc
         id="desc3729">Drawing</desc>
      <g
         id="g3731">
        <g
           style="stroke:rgb(0,0,0);fill:none"
           id="g3733">
          <path
             style="fill:none"
             d="M 17148,6461 C 17128,6461 17111,6456 17093,6446 17076,6436 17064,6424 17054,6407 17044,6389 17039,6372 17039,6353 17039,6333 17044,6316 17054,6298 17064,6281 17076,6269 17093,6259 17111,6249 17128,6244 17148,6244 17167,6244 17184,6249 17202,6259 17219,6269 17231,6281 17241,6298 17251,6316 17256,6333 17256,6353 17256,6372 17251,6389 17241,6407 17231,6424 17219,6436 17202,6446 17184,6456 17167,6461 17148,6461"
             id="path3735" />
        </g>
        <g
           id="g3737" />
      </g>
    </g>
    <g
       id="g3739">
      <desc
         id="desc3741">Drawing</desc>
      <g
         id="g3743">
        <g
           style="stroke:rgb(0,0,0);fill:none"
           id="g3745">
          <path
             style="fill:none"
             d="M 18926,8493 C 18906,8493 18889,8488 18871,8478 18854,8468 18842,8456 18832,8439 18822,8421 18817,8404 18817,8385 18817,8365 18822,8348 18832,8330 18842,8313 18854,8301 18871,8291 18889,8281 18906,8276 18926,8276 18945,8276 18962,8281 18980,8291 18997,8301 19009,8313 19019,8330 19029,8348 19034,8365 19034,8385 19034,8404 19029,8421 19019,8439 19009,8456 18997,8468 18980,8478 18962,8488 18945,8493 18926,8493"
             id="path3747" />
        </g>
        <g
           id="g3749" />
      </g>
    </g>
    <g
       id="g3763">
      <desc
         id="desc3765">Drawing</desc>
      <g
         id="g3767">
        <g
           style="stroke:rgb(0,0,0);fill:none"
           id="g3769">
          <path
             style="fill:none"
             d="M 11161,10652 L 11376,10652 C 11432,10652 11478,10606 11478,10550 L 11478,10500 C 11478,10444 11432,10398 11376,10398 L 10945,10398 C 10889,10398 10843,10444 10843,10500 L 10843,10550 C 10843,10606 10889,10652 10945,10652 L 11161,10652"
             id="path3771" />
        </g>
        <g
           id="g3773" />
      </g>
    </g>
    <g
       id="g3775">
      <desc
         id="desc3777">Drawing</desc>
      <g
         id="g3779">
        <g
           style="stroke:rgb(0,0,0);fill:none"
           id="g3781">
          <path
             style="fill:none"
             d="M 14717,10652 L 14932,10652 C 14988,10652 15034,10606 15034,10550 L 15034,10500 C 15034,10444 14988,10398 14932,10398 L 14501,10398 C 14445,10398 14399,10444 14399,10500 L 14399,10550 C 14399,10606 14445,10652 14501,10652 L 14717,10652"
             id="path3783" />
        </g>
        <g
           id="g3785" />
      </g>
    </g>
    <g
       id="g3787">
      <desc
         id="desc3789">Drawing</desc>
      <g
         id="g3791">
        <g
           style="stroke:rgb(0,0,0);fill:none"
           id="g3793">
          <path
             style="fill:none"
             d="M 11161,16494 L 11376,16494 C 11432,16494 11478,16448 11478,16392 L 11478,16342 C 11478,16286 11432,16240 11376,16240 L 10945,16240 C 10889,16240 10843,16286 10843,16342 L 10843,16392 C 10843,16448 10889,16494 10945,16494 L 11161,16494"
             id="path3795" />
        </g>
        <g
           id="g3797" />
      </g>
    </g>
    <g
       id="g3799">
      <desc
         id="desc3801">Drawing</desc>
      <g
         id="g3803">
        <g
           style="stroke:rgb(0,0,0);fill:none"
           id="g3805">
          <path
             style="fill:none"
             d="M 14717,16494 L 14932,16494 C 14988,16494 15034,16448 15034,16392 L 15034,16342 C 15034,16286 14988,16240 14932,16240 L 14501,16240 C 14445,16240 14399,16286 14399,16342 L 14399,16392 C 14399,16448 14445,16494 14501,16494 L 14717,16494"
             id="path3807" />
        </g>
        <g
           id="g3809" />
      </g>
    </g>
    <g
       id="g3823">
      <desc
         id="desc3825">Drawing</desc>
      <g
         id="g3827">
        <g
           style="stroke:rgb(0,0,0);fill:none"
           id="g3829">
          <path
             style="fill:none"
             d="M 17511,12920 C 17491,12920 17474,12915 17456,12905 17439,12895 17427,12883 17417,12866 17407,12848 17402,12831 17402,12812 17402,12792 17407,12775 17417,12757 17427,12740 17439,12728 17456,12718 17474,12708 17491,12703 17511,12703 17530,12703 17547,12708 17565,12718 17582,12728 17594,12740 17604,12757 17614,12775 17619,12792 17619,12812 17619,12831 17614,12848 17604,12866 17594,12883 17582,12895 17565,12905 17547,12915 17530,12920 17511,12920"
             id="path3831" />
        </g>
        <g
           id="g3833" />
      </g>
    </g>
    <g
       id="g3835">
      <desc
         id="desc3837">Drawing</desc>
      <g
         id="g3839">
        <g
           style="stroke:rgb(0,0,0);fill:none"
           id="g3841">
          <path
             style="fill:none"
             d="M 19543,12920 C 19523,12920 19506,12915 19488,12905 19471,12895 19459,12883 19449,12866 19439,12848 19434,12831 19434,12812 19434,12792 19439,12775 19449,12757 19459,12740 19471,12728 19488,12718 19506,12708 19523,12703 19543,12703 19562,12703 19579,12708 19597,12718 19614,12728 19626,12740 19636,12757 19646,12775 19651,12792 19651,12812 19651,12831 19646,12848 19636,12866 19626,12883 19614,12895 19597,12905 19579,12915 19562,12920 19543,12920"
             id="path3843" />
        </g>
        <g
           id="g3845" />
      </g>
    </g>
    <g
       id="g3847">
      <desc
         id="desc3849">Drawing</desc>
      <g
         id="g3851">
        <g
           style="stroke:rgb(0,0,0);fill:none"
           id="g3853">
          <path
             style="fill:none"
             d="M 19543,10253 C 19523,10253 19506,10248 19488,10238 19471,10228 19459,10216 19449,10199 19439,10181 19434,10164 19434,10145 19434,10125 19439,10108 19449,10090 19459,10073 19471,10061 19488,10051 19506,10041 19523,10036 19543,10036 19562,10036 19579,10041 19597,10051 19614,10061 19626,10073 19636,10090 19646,10108 19651,10125 19651,10145 19651,10164 19646,10181 19636,10199 19626,10216 19614,10228 19597,10238 19579,10248 19562,10253 19543,10253"
             id="path3855" />
        </g>
        <g
           id="g3857" />
      </g>
    </g>
    <g
       id="g3859">
      <desc
         id="desc3861">Drawing</desc>
      <g
         id="g3863">
        <g
           style="stroke:rgb(0,0,0);fill:none"
           id="g3865">
          <path
             style="fill:none"
             d="M 17511,10253 C 17491,10253 17474,10248 17456,10238 17439,10228 17427,10216 17417,10199 17407,10181 17402,10164 17402,10145 17402,10125 17407,10108 17417,10090 17427,10073 17439,10061 17456,10051 17474,10041 17491,10036 17511,10036 17530,10036 17547,10041 17565,10051 17582,10061 17594,10073 17604,10090 17614,10108 17619,10125 17619,10145 17619,10164 17614,10181 17604,10199 17594,10216 17582,10228 17565,10238 17547,10248 17530,10253 17511,10253"
             id="path3867" />
        </g>
        <g
           id="g3869" />
      </g>
    </g>
    <g
       id="g3883">
      <desc
         id="desc3885">Drawing</desc>
      <g
         id="g3887">
        <g
           style="stroke:rgb(0,0,0);fill:none"
           id="g3889">
          <path
             style="fill:none"
             d="M 6335,12920 C 6315,12920 6298,12915 6280,12905 6263,12895 6251,12883 6241,12866 6231,12848 6226,12831 6226,12812 6226,12792 6231,12775 6241,12757 6251,12740 6263,12728 6280,12718 6298,12708 6315,12703 6335,12703 6354,12703 6371,12708 6389,12718 6406,12728 6418,12740 6428,12757 6438,12775 6443,12792 6443,12812 6443,12831 6438,12848 6428,12866 6418,12883 6406,12895 6389,12905 6371,12915 6354,12920 6335,12920"
             id="path3891" />
        </g>
        <g
           id="g3893" />
      </g>
    </g>
    <g
       id="g3895">
      <desc
         id="desc3897">Drawing</desc>
      <g
         id="g3899">
        <g
           style="stroke:rgb(0,0,0);fill:none"
           id="g3901">
          <path
             style="fill:none"
             d="M 8367,12920 C 8347,12920 8330,12915 8312,12905 8295,12895 8283,12883 8273,12866 8263,12848 8258,12831 8258,12812 8258,12792 8263,12775 8273,12757 8283,12740 8295,12728 8312,12718 8330,12708 8347,12703 8367,12703 8386,12703 8403,12708 8421,12718 8438,12728 8450,12740 8460,12757 8470,12775 8475,12792 8475,12812 8475,12831 8470,12848 8460,12866 8450,12883 8438,12895 8421,12905 8403,12915 8386,12920 8367,12920"
             id="path3903" />
        </g>
        <g
           id="g3905" />
      </g>
    </g>
    <g
       id="g3907">
      <desc
         id="desc3909">Drawing</desc>
      <g
         id="g3911">
        <g
           style="stroke:rgb(0,0,0);fill:none"
           id="g3913">
          <path
             style="fill:none"
             d="M 8367,10253 C 8347,10253 8330,10248 8312,10238 8295,10228 8283,10216 8273,10199 8263,10181 8258,10164 8258,10145 8258,10125 8263,10108 8273,10090 8283,10073 8295,10061 8312,10051 8330,10041 8347,10036 8367,10036 8386,10036 8403,10041 8421,10051 8438,10061 8450,10073 8460,10090 8470,10108 8475,10125 8475,10145 8475,10164 8470,10181 8460,10199 8450,10216 8438,10228 8421,10238 8403,10248 8386,10253 8367,10253"
             id="path3915" />
        </g>
        <g
           id="g3917" />
      </g>
    </g>
    <g
       id="g3919">
      <desc
         id="desc3921">Drawing</desc>
      <g
         id="g3923">
        <g
           style="stroke:rgb(0,0,0);fill:none"
           id="g3925">
          <path
             style="fill:none"
             d="M 6335,10253 C 6315,10253 6298,10248 6280,10238 6263,10228 6251,10216 6241,10199 6231,10181 6226,10164 6226,10145 6226,10125 6231,10108 6241,10090 6251,10073 6263,10061 6280,10051 6298,10041 6315,10036 6335,10036 6354,10036 6371,10041 6389,10051 6406,10061 6418,10073 6428,10090 6438,10108 6443,10125 6443,10145 6443,10164 6438,10181 6428,10199 6418,10216 6406,10228 6389,10238 6371,10248 6354,10253 6335,10253"
             id="path3927" />
        </g>
        <g
           id="g3929" />
      </g>
    </g>
    <g
       id="g3931">
      <desc
         id="desc3933">Drawing</desc>
      <g
         id="g3935">
        <g
           style="stroke:rgb(0,0,0);fill:none"
           id="g3937">
          <path
             style="fill:none"
             d="M 9256,10017 C 9236,10017 9219,10012 9201,10002 9184,9992 9172,9980 9162,9963 9152,9945 9147,9928 9147,9909 9147,9889 9152,9872 9162,9854 9172,9837 9184,9825 9201,9815 9219,9805 9236,9800 9256,9800 9275,9800 9292,9805 9310,9815 9327,9825 9339,9837 9349,9854 9359,9872 9364,9889 9364,9909 9364,9928 9359,9945 9349,9963 9339,9980 9327,9992 9310,10002 9292,10012 9275,10017 9256,10017"
             id="path3939" />
        </g>
        <g
           id="g3941" />
      </g>
    </g>
    <g
       id="g3943">
      <desc
         id="desc3945">Drawing</desc>
      <g
         id="g3947">
        <g
           style="stroke:rgb(0,0,0);fill:none"
           id="g3949">
          <path
             style="fill:none"
             d="M 16622,9999 C 16602,9999 16585,9994 16567,9984 16550,9974 16538,9962 16528,9945 16518,9927 16513,9910 16513,9891 16513,9871 16518,9854 16528,9836 16538,9819 16550,9807 16567,9797 16585,9787 16602,9782 16622,9782 16641,9782 16658,9787 16676,9797 16693,9807 16705,9819 16715,9836 16725,9854 16730,9871 16730,9891 16730,9910 16725,9927 16715,9945 16705,9962 16693,9974 16676,9984 16658,9994 16641,9999 16622,9999"
             id="path3951" />
        </g>
        <g
           id="g3953" />
      </g>
    </g>
    <g
       id="g3955">
      <desc
         id="desc3957">Drawing</desc>
      <g
         id="g3959">
        <g
           style="stroke:rgb(0,0,0);fill:none"
           id="g3961">
          <path
             style="fill:none"
             d="M 16640,15079 C 16620,15079 16603,15074 16585,15064 16568,15054 16556,15042 16546,15025 16536,15007 16531,14990 16531,14971 16531,14951 16536,14934 16546,14916 16556,14899 16568,14887 16585,14877 16603,14867 16620,14862 16640,14862 16659,14862 16676,14867 16694,14877 16711,14887 16723,14899 16733,14916 16743,14934 16748,14951 16748,14971 16748,14990 16743,15007 16733,15025 16723,15042 16711,15054 16694,15064 16676,15074 16659,15079 16640,15079"
             id="path3963" />
        </g>
        <g
           id="g3965" />
      </g>
    </g>
    <g
       id="g3967">
      <desc
         id="desc3969">Drawing</desc>
      <g
         id="g3971">
        <g
           style="stroke:rgb(0,0,0);fill:none"
           id="g3973">
          <path
             style="fill:none"
             d="M 9256,15079 C 9236,15079 9219,15074 9201,15064 9184,15054 9172,15042 9162,15025 9152,15007 9147,14990 9147,14971 9147,14951 9152,14934 9162,14916 9172,14899 9184,14887 9201,14877 9219,14867 9236,14862 9256,14862 9275,14862 9292,14867 9310,14877 9327,14887 9339,14899 9349,14916 9359,14934 9364,14951 9364,14971 9364,14990 9359,15007 9349,15025 9339,15042 9327,15054 9310,15064 9292,15074 9275,15079 9256,15079"
             id="path3975" />
        </g>
        <g
           id="g3977" />
      </g>
    </g>
    <g
       id="g3979">
      <desc
         id="desc3981">Drawing</desc>
      <g
         id="g3983">
        <g
           style="stroke:rgb(0,0,0);fill:none"
           id="g3985">
          <path
             style="fill:none"
             d="M 6099,18907 C 6079,18907 6062,18902 6044,18892 6027,18882 6015,18870 6005,18853 5995,18835 5990,18818 5990,18799 5990,18779 5995,18762 6005,18744 6015,18727 6027,18715 6044,18705 6062,18695 6079,18690 6099,18690 6118,18690 6135,18695 6153,18705 6170,18715 6182,18727 6192,18744 6202,18762 6207,18779 6207,18799 6207,18818 6202,18835 6192,18853 6182,18870 6170,18882 6153,18892 6135,18902 6118,18907 6099,18907"
             id="path3987" />
        </g>
        <g
           id="g3989" />
      </g>
    </g>
    <g
       id="g3991"
       style="stroke:#000000;stroke-opacity:1">
      <desc
         id="desc3993">Drawing</desc>
      <g
         id="g3995"
         style="stroke:#000000;stroke-opacity:1">
        <g
           style="stroke:#000000;fill:none;stroke-opacity:1"
           id="g3997" />
        <g
           id="g4001"
           style="stroke:#000000;stroke-opacity:1" />
      </g>
    </g>
    <g
       id="g4003"
       style="stroke:#000000;stroke-opacity:1">
      <desc
         id="desc4005">Drawing</desc>
      <g
         id="g4007"
         style="stroke:#000000;stroke-opacity:1">
        <g
           style="stroke:#000000;fill:none;stroke-opacity:1"
           id="g4009" />
        <g
           id="g4013"
           style="stroke:#000000;stroke-opacity:1" />
      </g>
    </g>
    <g
       id="g4015"
       style="stroke:#000000;stroke-opacity:1">
      <desc
         id="desc4017">Drawing</desc>
      <g
         id="g4019"
         style="stroke:#000000;stroke-opacity:1">
        <g
           style="stroke:#000000;fill:none;stroke-opacity:1"
           id="g4021" />
        <g
           id="g4025"
           style="stroke:#000000;stroke-opacity:1" />
      </g>
    </g>
    <g
       id="g4027"
       style="stroke:#000000;stroke-opacity:1">
      <desc
         id="desc4029">Drawing</desc>
      <g
         id="g4031"
         style="stroke:#000000;stroke-opacity:1">
        <g
           style="stroke:#000000;fill:none;stroke-opacity:1"
           id="g4033" />
        <g
           id="g4037"
           style="stroke:#000000;stroke-opacity:1" />
      </g>
    </g>
    <g
       id="g4039"
       style="stroke:#000000;stroke-opacity:1">
      <desc
         id="desc4041">Drawing</desc>
      <g
         id="g4043"
         style="stroke:#000000;stroke-opacity:1">
        <g
           style="stroke:#000000;fill:none;stroke-opacity:1"
           id="g4045" />
        <g
           id="g4049"
           style="stroke:#000000;stroke-opacity:1" />
      </g>
    </g>
    <g
       id="g4051"
       style="stroke:#000000;stroke-opacity:1">
      <desc
         id="desc4053">Drawing</desc>
      <g
         id="g4055"
         style="stroke:#000000;stroke-opacity:1">
        <g
           style="stroke:#000000;fill:none;stroke-opacity:1"
           id="g4057">
          <g
             id="g4962">
            <g
               id="g4977">
              <g
                 id="g4970">
                <path
                   id="path4047"
                   d="m 12938,17256 2413,0 c 403.864,0 763.915,-188.863 996.585,-483.023 L 16685,16520 c 182,-105 361,-153 571,-153 210,0 389,48 572,153 182,105 313,236 418,419 105,182 153,361 153,571 0,210 -48,389 -153,572 -105,182 -236,313 -418,418 l -667,332 c -213,122 -366,275 -488,488 -123,212 -179,421 -179,667 0,245 56,454 179,666 122,213 275,366 488,488 212,123 421,179 667,179 l 680.52,0 1287.48,0 c 701,0 1270,-569 1270,-1270 l 0,-13970 c 0,-701 -569,-1270 -1270,-1270 l -13716,0 c -701,0 -1270,569 -1270,1270 l 0,13970 c 0,701 569,1270 1270,1270 l 1468.3649,0 500.6351,0 c 245,0 454,-56 666,-179 213,-122 366,-275 488,-488 123,-212 179,-421 179,-666 0,-246 -56,-455 -179,-667 -122,-213 -275,-366 -488,-488 l -666,-332 c -183,-105 -314,-236 -419,-418 -105,-183 -153,-362 -153,-572 0,-210 48,-389 153,-571 105,-183 236,-314 419,-419 182,-105 361,-153 571,-153 210,0 389,48 572,153 l 337.2978,254.093 C 9761.9956,17067.614 10121.646,17256 10525,17256 l 2413,0"
                   style="fill:none;stroke:#000000;stroke-opacity:1"
                   inkscape:connector-curvature="0"
                   sodipodi:nodetypes="csccsccsccccsccccssssssssccccsccccsccsccsc" />
              </g>
            </g>
          </g>
        </g>
        <g
           id="g4061"
           style="stroke:#000000;stroke-opacity:1" />
      </g>
    </g>
    <g
       id="g4063">
      <desc
         id="desc4065">Drawing</desc>
      <g
         id="g4067">
        <g
           style="stroke:rgb(0,0,0);fill:none"
           id="g4069">
          <path
             style="fill:none"
             d="M 6099,15097 C 6079,15097 6062,15092 6044,15082 6027,15072 6015,15060 6005,15043 5995,15025 5990,15008 5990,14989 5990,14969 5995,14952 6005,14934 6015,14917 6027,14905 6044,14895 6062,14885 6079,14880 6099,14880 6118,14880 6135,14885 6153,14895 6170,14905 6182,14917 6192,14934 6202,14952 6207,14969 6207,14989 6207,15008 6202,15025 6192,15043 6182,15060 6170,15072 6153,15082 6135,15092 6118,15097 6099,15097"
             id="path4071" />
        </g>
        <g
           id="g4073" />
      </g>
    </g>
    <g
       id="g4075">
      <desc
         id="desc4077">Drawing</desc>
      <g
         id="g4079">
        <g
           style="stroke:rgb(0,0,0);fill:none"
           id="g4081">
          <path
             style="fill:none"
             d="M 19778,18889 C 19758,18889 19741,18884 19723,18874 19706,18864 19694,18852 19684,18835 19674,18817 19669,18800 19669,18781 19669,18761 19674,18744 19684,18726 19694,18709 19706,18697 19723,18687 19741,18677 19758,18672 19778,18672 19797,18672 19814,18677 19832,18687 19849,18697 19861,18709 19871,18726 19881,18744 19886,18761 19886,18781 19886,18800 19881,18817 19871,18835 19861,18852 19849,18864 19832,18874 19814,18884 19797,18889 19778,18889"
             id="path4083" />
        </g>
        <g
           id="g4085" />
      </g>
    </g>
    <g
       id="g4087">
      <desc
         id="desc4089">Drawing</desc>
      <g
         id="g4091">
        <g
           style="stroke:rgb(0,0,0);fill:none"
           id="g4093">
          <path
             style="fill:none"
             d="M 19778,15079 C 19758,15079 19741,15074 19723,15064 19706,15054 19694,15042 19684,15025 19674,15007 19669,14990 19669,14971 19669,14951 19674,14934 19684,14916 19694,14899 19706,14887 19723,14877 19741,14867 19758,14862 19778,14862 19797,14862 19814,14867 19832,14877 19849,14887 19861,14899 19871,14916 19881,14934 19886,14951 19886,14971 19886,14990 19881,15007 19871,15025 19861,15042 19849,15054 19832,15064 19814,15074 19797,15079 19778,15079"
             id="path4095" />
        </g>
        <g
           id="g4097" />
      </g>
    </g>
    <g
       id="g4099">
      <desc
         id="desc4101">Drawing</desc>
      <g
         id="g4103">
        <g
           style="stroke:rgb(0,0,0);fill:none"
           id="g4105">
          <path
             style="fill:none"
             d="M 6081,6207 C 6061,6207 6044,6202 6026,6192 6009,6182 5997,6170 5987,6153 5977,6135 5972,6118 5972,6099 5972,6079 5977,6062 5987,6044 5997,6027 6009,6015 6026,6005 6044,5995 6061,5990 6081,5990 6100,5990 6117,5995 6135,6005 6152,6015 6164,6027 6174,6044 6184,6062 6189,6079 6189,6099 6189,6118 6184,6135 6174,6153 6164,6170 6152,6182 6135,6192 6117,6202 6100,6207 6081,6207"
             id="path4107" />
        </g>
        <g
           id="g4109" />
      </g>
    </g>
    <g
       id="g4111">
      <desc
         id="desc4113">Drawing</desc>
      <g
         id="g4115">
        <g
           style="stroke:rgb(0,0,0);fill:none"
           id="g4117">
          <path
             style="fill:none"
             d="M 19778,6207 C 19758,6207 19741,6202 19723,6192 19706,6182 19694,6170 19684,6153 19674,6135 19669,6118 19669,6099 19669,6079 19674,6062 19684,6044 19694,6027 19706,6015 19723,6005 19741,5995 19758,5990 19778,5990 19797,5990 19814,5995 19832,6005 19849,6015 19861,6027 19871,6044 19881,6062 19886,6079 19886,6099 19886,6118 19881,6135 19871,6153 19861,6170 19849,6182 19832,6192 19814,6202 19797,6207 19778,6207"
             id="path4119" />
        </g>
        <g
           id="g4121" />
      </g>
    </g>
    <g
       id="g4135">
      <desc
         id="desc4137">Drawing</desc>
      <g
         id="g4139">
        <g
           style="stroke:rgb(0,0,0);fill:none"
           id="g4141">
          <path
             style="fill:none"
             d="M 15098,7477 C 15078,7477 15061,7472 15043,7462 15026,7452 15014,7440 15004,7423 14994,7405 14989,7388 14989,7369 14989,7349 14994,7332 15004,7314 15014,7297 15026,7285 15043,7275 15061,7265 15078,7260 15098,7260 15117,7260 15134,7265 15152,7275 15169,7285 15181,7297 15191,7314 15201,7332 15206,7349 15206,7369 15206,7388 15201,7405 15191,7423 15181,7440 15169,7452 15152,7462 15134,7472 15117,7477 15098,7477"
             id="path4143" />
        </g>
        <g
           id="g4145" />
      </g>
    </g>
    <g
       id="g4147">
      <desc
         id="desc4149">Drawing</desc>
      <g
         id="g4151">
        <g
           style="stroke:rgb(0,0,0);fill:none"
           id="g4153">
          <path
             style="fill:none"
             d="M 7224,8620 C 7204,8620 7187,8615 7169,8605 7152,8595 7140,8583 7130,8566 7120,8548 7115,8531 7115,8512 7115,8492 7120,8475 7130,8457 7140,8440 7152,8428 7169,8418 7187,8408 7204,8403 7224,8403 7243,8403 7260,8408 7278,8418 7295,8428 7307,8440 7317,8457 7327,8475 7332,8492 7332,8512 7332,8531 7327,8548 7317,8566 7307,8583 7295,8595 7278,8605 7260,8615 7243,8620 7224,8620"
             id="path4155" />
        </g>
        <g
           id="g4157" />
      </g>
    </g>
    <g
       id="g4159">
      <desc
         id="desc4161">Drawing</desc>
      <g
         id="g4163">
        <g
           style="stroke:rgb(0,0,0);fill:none"
           id="g4165">
          <path
             style="fill:none"
             d="M 7224,6316 C 7204,6316 7187,6311 7169,6301 7152,6291 7140,6279 7130,6262 7120,6244 7115,6227 7115,6208 7115,6188 7120,6171 7130,6153 7140,6136 7152,6124 7169,6114 7187,6104 7204,6099 7224,6099 7243,6099 7260,6104 7278,6114 7295,6124 7307,6136 7317,6153 7327,6171 7332,6188 7332,6208 7332,6227 7327,6244 7317,6262 7307,6279 7295,6291 7278,6301 7260,6311 7243,6316 7224,6316"
             id="path4167" />
        </g>
        <g
           id="g4169" />
      </g>
    </g>
    <g
       id="g4171">
      <desc
         id="desc4173">Drawing</desc>
      <g
         id="g4175">
        <g
           style="stroke:rgb(0,0,0);fill:none"
           id="g4177">
          <path
             style="fill:none"
             d="M 9510,7459 C 9490,7459 9473,7454 9455,7444 9438,7434 9426,7422 9416,7405 9406,7387 9401,7370 9401,7351 9401,7331 9406,7314 9416,7296 9426,7279 9438,7267 9455,7257 9473,7247 9490,7242 9510,7242 9529,7242 9546,7247 9564,7257 9581,7267 9593,7279 9603,7296 9613,7314 9618,7331 9618,7351 9618,7370 9613,7387 9603,7405 9593,7422 9581,7434 9564,7444 9546,7454 9529,7459 9510,7459"
             id="path4179" />
        </g>
        <g
           id="g4181" />
      </g>
    </g>
  </g>
</svg>
